<svg width="20" height="20" viewBox="0 0 20 20" fill="none" xmlns="http://www.w3.org/2000/svg">
<path d="M12.083 4.99998C12.0438 4.08915 11.9288 3.50831 11.5847 3.06165C11.4516 2.88824 11.2964 2.73303 11.123 2.59998C10.448 2.08331 9.46884 2.08331 7.51051 2.08331H7.09301C4.73134 2.08331 3.55051 2.08331 2.81634 2.81581C2.08301 3.54748 2.08301 4.72665 2.08301 7.08331V12.9166C2.08301 15.2733 2.08301 16.4525 2.81634 17.1841C3.54967 17.9158 4.73134 17.9166 7.09301 17.9166H7.50967C9.46884 17.9166 10.448 17.9166 11.123 17.4C11.2975 17.2661 11.4513 17.1122 11.5847 16.9383C11.9288 16.4916 12.0438 15.9108 12.083 15M17.083 9.99998H7.08301M14.9997 12.9166C14.9997 12.9166 17.9163 10.7683 17.9163 9.99998C17.9163 9.23165 14.9997 7.08331 14.9997 7.08331" stroke="white" stroke-width="1.25" stroke-linecap="round" stroke-linejoin="round"/>
</svg>
