<svg width="21" height="20" viewBox="0 0 21 20" fill="none" xmlns="http://www.w3.org/2000/svg">
<path d="M2.75 9.99998C2.75 6.26831 2.75 4.40165 3.90917 3.24248C5.06833 2.08331 6.93417 2.08331 10.6667 2.08331C14.3983 2.08331 16.265 2.08331 17.4242 3.24248C18.5833 4.40165 18.5833 6.26748 18.5833 9.99998C18.5833 13.7316 18.5833 15.5983 17.4242 16.7575C16.265 17.9166 14.3992 17.9166 10.6667 17.9166C6.935 17.9166 5.06833 17.9166 3.90917 16.7575C2.75 15.5983 2.75 13.7325 2.75 9.99998Z" stroke="white" stroke-width="1.25"/>
<path d="M8.58301 7.91673C8.58314 7.55782 8.67599 7.20503 8.85256 6.89256C9.02914 6.5801 9.28344 6.31854 9.59082 6.13326C9.8982 5.94797 10.2482 5.84524 10.607 5.83501C10.9658 5.82479 11.3211 5.90742 11.6385 6.0749C11.9559 6.24238 12.2247 6.48903 12.4188 6.79094C12.6129 7.09284 12.7257 7.43977 12.7462 7.79809C12.7668 8.1564 12.6945 8.51396 12.5362 8.83609C12.378 9.15823 12.1392 9.43402 11.843 9.63673C11.273 10.0267 10.6663 10.5601 10.6663 11.2501" stroke="white" stroke-width="1.25" stroke-linecap="round" stroke-linejoin="round"/>
<path d="M10.6665 14.1667H10.674" stroke="white" stroke-width="1.5" stroke-linecap="round" stroke-linejoin="round"/>
</svg>
