<svg width="24" height="24" viewBox="0 0 24 24" fill="none" xmlns="http://www.w3.org/2000/svg">
<rect width="24" height="24" fill="white"/>
<path d="M16.3076 4.38409C15.7176 4.38409 15.4216 4.38409 15.1526 4.28409L15.0416 4.23809C14.7806 4.11809 14.5716 3.91009 14.1536 3.49209C13.1916 2.53009 12.7106 2.04909 12.1196 2.00409C12.0397 1.99929 11.9595 1.99929 11.8796 2.00409C11.2886 2.04909 10.8076 2.53009 9.8456 3.49209C9.4276 3.91009 9.2186 4.11909 8.9576 4.23809L8.8476 4.28409C8.5776 4.38409 8.2826 4.38409 7.6916 4.38409H7.5816C6.0746 4.38409 5.3206 4.38409 4.8516 4.85209C4.3826 5.32009 4.3836 6.07509 4.3836 7.58209V7.69209C4.3836 8.28209 4.3836 8.57809 4.2836 8.84709C4.26894 8.88509 4.2536 8.92209 4.2376 8.95809C4.1176 9.21909 3.9096 9.42809 3.4916 9.84609C2.5296 10.8081 2.0486 11.2891 2.0036 11.8801C1.9988 11.96 1.9988 12.0402 2.0036 12.1201C2.0486 12.7111 2.5296 13.1921 3.4916 14.1541C3.9096 14.5721 4.1186 14.7811 4.2376 15.0421C4.25427 15.0781 4.2696 15.1148 4.2836 15.1521C4.3836 15.4221 4.3836 15.7171 4.3836 16.3081V16.4181C4.3836 17.9251 4.3836 18.6791 4.8516 19.1481C5.3196 19.6171 6.0746 19.6161 7.5816 19.6161H7.6916C8.2816 19.6161 8.5776 19.6161 8.8466 19.7161C8.8846 19.7301 8.9216 19.7454 8.9576 19.7621C9.2186 19.8821 9.4276 20.0901 9.8456 20.5081C10.8076 21.4701 11.2886 21.9511 11.8796 21.9961C11.9596 22.0021 12.0396 22.0021 12.1196 21.9961C12.7106 21.9511 13.1916 21.4701 14.1536 20.5081C14.5716 20.0901 14.7806 19.8821 15.0416 19.7621C15.0776 19.7454 15.1143 19.7301 15.1516 19.7161C15.4216 19.6161 15.7166 19.6161 16.3076 19.6161H16.4176C17.9246 19.6161 18.6786 19.6161 19.1476 19.1481C19.6166 18.6801 19.6156 17.9251 19.6156 16.4181V16.3081C19.6156 15.7181 19.6156 15.4221 19.7156 15.1531C19.7296 15.1151 19.7449 15.0781 19.7616 15.0421C19.8816 14.7811 20.0896 14.5721 20.5076 14.1541C21.4696 13.1921 21.9506 12.7111 21.9956 12.1201C22.0016 12.0401 22.0016 11.9601 21.9956 11.8801C21.9506 11.2891 21.4696 10.8081 20.5076 9.84609C20.0896 9.42809 19.8816 9.21909 19.7616 8.95809L19.7156 8.84809C19.6156 8.57809 19.6156 8.28309 19.6156 7.69209V7.58209C19.6156 6.07509 19.6156 5.32109 19.1476 4.85209C18.6796 4.38309 17.9246 4.38409 16.4176 4.38409H16.3076Z" stroke="#5B79FF" stroke-width="1.5"/>
<path d="M8.5 16.5C8.85469 15.8857 9.36489 15.3755 9.97929 15.0209C10.5937 14.6663 11.2906 14.4798 12 14.48C13.496 14.48 14.801 15.292 15.5 16.5M14 10C14 10.5304 13.7893 11.0391 13.4142 11.4142C13.0391 11.7893 12.5304 12 12 12C11.4696 12 10.9609 11.7893 10.5858 11.4142C10.2107 11.0391 10 10.5304 10 10C10 9.46957 10.2107 8.96086 10.5858 8.58579C10.9609 8.21071 11.4696 8 12 8C12.5304 8 13.0391 8.21071 13.4142 8.58579C13.7893 8.96086 14 9.46957 14 10Z" stroke="#5B79FF" stroke-width="1.5" stroke-linecap="round"/>
</svg>
